<svg width="20" height="20" viewBox="0 0 20 20" fill="none" xmlns="http://www.w3.org/2000/svg">
<path fill-rule="evenodd" clip-rule="evenodd" d="M14.6429 0C14.927 0 15.1995 0.112882 15.4005 0.313814C15.6014 0.514746 15.7143 0.787268 15.7143 1.07143V2.85714H18.5714C18.9503 2.85714 19.3137 3.00765 19.5816 3.27556C19.8495 3.54347 20 3.90683 20 4.28571V18.5714C20 18.9503 19.8495 19.3137 19.5816 19.5816C19.3137 19.8495 18.9503 20 18.5714 20H1.42857C1.04969 20 0.686328 19.8495 0.418419 19.5816C0.15051 19.3137 0 18.9503 0 18.5714V4.28571C0 3.90683 0.15051 3.54347 0.418419 3.27556C0.686328 3.00765 1.04969 2.85714 1.42857 2.85714H4.28571V1.07143C4.28571 0.787268 4.3986 0.514746 4.59953 0.313814C4.80046 0.112882 5.07298 0 5.35714 0C5.6413 0 5.91383 0.112882 6.11476 0.313814C6.31569 0.514746 6.42857 0.787268 6.42857 1.07143V2.85714H13.5714V1.07143C13.5714 0.787268 13.6843 0.514746 13.8852 0.313814C14.0862 0.112882 14.3587 0 14.6429 0ZM2.14286 9.28571V17.8571H17.8571V9.28571H2.14286ZM2.14286 7.14286H17.8571V5H2.14286V7.14286ZM13.2571 11.3857C13.4578 11.5866 13.5705 11.8589 13.5705 12.1429C13.5705 12.4268 13.4578 12.6991 13.2571 12.9L10.0429 16.1143C9.84196 16.3149 9.56964 16.4276 9.28571 16.4276C9.00179 16.4276 8.72946 16.3149 8.52857 16.1143L6.74286 14.3286C6.63759 14.2305 6.55316 14.1122 6.4946 13.9808C6.43604 13.8493 6.40455 13.7075 6.40201 13.5636C6.39947 13.4197 6.42594 13.2768 6.47982 13.1434C6.53371 13.01 6.61392 12.8888 6.71566 12.7871C6.8174 12.6853 6.93859 12.6051 7.072 12.5513C7.20542 12.4974 7.34831 12.4709 7.49218 12.4734C7.63604 12.476 7.77791 12.5075 7.90934 12.566C8.04077 12.6246 8.15905 12.709 8.25714 12.8143L9.28571 13.8429L11.7429 11.3857C11.9438 11.1851 12.2161 11.0724 12.5 11.0724C12.7839 11.0724 13.0562 11.1851 13.2571 11.3857Z" fill="#1B1F20"/>
</svg>
