<svg width="34" height="25" viewBox="0 0 34 25" fill="none" xmlns="http://www.w3.org/2000/svg">
<path fill-rule="evenodd" clip-rule="evenodd" d="M0.189582 8.5H33.7277C33.7113 4.7682 33.5645 2.7646 32.2562 1.46447C30.7825 0 28.4107 0 23.6671 0H10.2502C5.5066 0 3.1348 0 1.66115 1.46447C0.352867 2.7646 0.206057 4.7682 0.189582 8.5ZM33.7298 11.5H0.1875V15C0.1875 19.714 0.1875 22.0711 1.66115 23.5355C3.1348 25 5.5066 25 10.2502 25H23.6671C28.4107 25 30.7825 25 32.2562 23.5355C33.7298 22.0711 33.7298 19.714 33.7298 15V11.5ZM8.58985 16.8333C7.76143 16.8333 7.08985 17.5049 7.08985 18.3333C7.08985 19.1618 7.76143 19.8333 8.58985 19.8333H11.2565C12.0849 19.8333 12.7565 19.1618 12.7565 18.3333C12.7565 17.5049 12.0849 16.8333 11.2565 16.8333H8.58985Z" fill="white"/>
</svg>
