<svg width="200" height="200" viewBox="0 0 200 200" fill="none" xmlns="http://www.w3.org/2000/svg">
<circle cx="101.346" cy="99.8511" r="89.6861" fill="#DA7474" fill-opacity="0.15"/>
<circle cx="100" cy="100" r="100" fill="#DA7474" fill-opacity="0.1"/>
<path d="M101.345 23.3184C59.0786 23.3184 24.8125 57.5725 24.8125 99.8505C24.8125 142.129 59.0786 176.383 101.345 176.383C143.611 176.383 177.877 142.108 177.877 99.8505C177.877 57.5934 143.611 23.3184 101.345 23.3184Z" fill="#EC021B"/>
<path d="M24.8126 99.8506C24.7953 112.501 27.9279 124.956 33.9277 136.093C41.5716 138.337 49.4978 139.474 57.4643 139.468C103.473 139.468 140.771 102.17 140.771 56.1615C140.778 48.0687 139.605 40.018 137.291 32.2632C126.227 26.37 113.88 23.2976 101.345 23.3185C59.0786 23.3185 24.8126 57.5726 24.8126 99.8506Z" fill="#DA7474"/>
<path d="M136 65L66 135" stroke="white" stroke-width="12" stroke-linecap="round" stroke-linejoin="round"/>
<path d="M66 65L136 135" stroke="white" stroke-width="12" stroke-linecap="round" stroke-linejoin="round"/>
</svg>
