<svg width="30" height="30" viewBox="0 0 30 30" fill="none" xmlns="http://www.w3.org/2000/svg">
<g clip-path="url(#clip0_231_3863)">
<path d="M17.5072 14.3803C16.7608 14.8779 15.8938 15.1409 15 15.1409C14.1062 15.1409 13.2393 14.8779 12.4929 14.3803L0.199746 6.18465C0.131883 6.13928 0.065276 6.09205 0 6.04303L0 19.4725C0 21.0123 1.24951 22.2342 2.7617 22.2342H27.2382C28.778 22.2342 29.9999 20.9847 29.9999 19.4725V6.04297C29.9346 6.09212 29.8678 6.13945 29.7998 6.18488L17.5072 14.3803Z" fill="white"/>
<path d="M1.17481 4.72219L13.468 12.9179C13.9333 13.2282 14.4666 13.3833 14.9999 13.3833C15.5333 13.3833 16.0667 13.2281 16.5321 12.9179L28.8252 4.72219C29.5608 4.23205 30 3.41174 30 2.52639C30 1.00406 28.7615 -0.234375 27.2392 -0.234375H2.76076C1.2385 -0.234316 1.45319e-06 1.00412 1.45319e-06 2.52785C-0.00045491 2.96215 0.106584 3.38981 0.311571 3.7727C0.516557 4.15558 0.813119 4.48177 1.17481 4.72219Z" fill="white"/>
</g>
<defs>
<clipPath id="clip0_231_3863">
<rect width="30" height="30" fill="white"/>
</clipPath>
</defs>
</svg>
