<svg width="35" height="38" viewBox="0 0 35 38" fill="none" xmlns="http://www.w3.org/2000/svg">
<path d="M14.7206 37.5123H2.84557C1.28048 37.5123 0 36.2318 0 34.6667V2.98455C0 1.41947 1.28048 0.138982 2.84557 0.138982H14.7206C18.6581 0.138982 21.8796 -0.952955 21.8796 2.98454V34.6667C21.8796 38.6041 18.6581 37.5123 14.7206 37.5123Z" fill="white"/>
<path d="M0 4.31348H21.8775V26.9912H0V4.31348Z" fill="#C3C3C3"/>
<path fill-rule="evenodd" clip-rule="evenodd" d="M16.3364 22.8873H33.8768C34.4947 22.8873 35.0003 22.3817 35.0003 21.7637V9.62209C35.0003 9.00412 34.4947 8.49854 33.8768 8.49854H16.3364C15.7185 8.49854 15.2129 9.00412 15.2129 9.62209V21.7637C15.2129 22.3817 15.7185 22.8873 16.3364 22.8873ZM25.4843 13.6035C26.6546 13.793 27.4497 14.8954 27.2601 16.0658C27.0706 17.2361 25.9682 18.0312 24.7978 17.8416C23.6275 17.6521 22.8324 16.5497 23.022 15.3793C23.2115 14.209 24.3139 13.4139 25.4843 13.6035Z" fill="white"/>
<rect x="13.8145" y="7.5625" width="2.80002" height="16.2401" fill="#D9D9D9"/>
</svg>
