<svg width="31" height="29" viewBox="0 0 31 29" fill="none" xmlns="http://www.w3.org/2000/svg">
<path d="M16.7259 18.9515L13.1468 15.312L13.1891 15.2685C15.5763 12.5383 17.3598 9.30792 18.4168 5.8H22.5455V2.9H12.6818V0H9.86364V2.9H0V5.8H15.7395C14.7955 8.584 13.3018 11.2375 11.2727 13.5575C9.96227 12.064 8.87727 10.4255 8.01773 8.7H5.19955C6.22818 11.0635 7.63727 13.2965 9.39864 15.312L2.22636 22.591L4.22727 24.65L11.2727 17.4L15.655 21.9095L16.7259 18.9515ZM24.6591 11.6H21.8409L15.5 29H18.3182L19.8964 24.65H26.5895L28.1818 29H31L24.6591 11.6ZM20.9673 21.75L23.25 15.4715L25.5327 21.75H20.9673Z" fill="white"/>
</svg>
